<mxfile host="65bd71144e">
    <diagram id="0gBdRJVKCOBKI2lHgrwH" name="Page-1">
        <mxGraphModel dx="557" dy="515" grid="0" gridSize="10" guides="0" tooltips="1" connect="0" arrows="0" fold="1" page="0" pageScale="1" pageWidth="850" pageHeight="1100" background="#1A1B2E" math="0" shadow="0">
            <root>
                <mxCell id="0"/>
                <mxCell id="1" parent="0"/>
                <mxCell id="6" value="ADTLIST UML" style="swimlane;fontStyle=1;align=center;verticalAlign=top;childLayout=stackLayout;horizontal=1;startSize=26;horizontalStack=0;resizeParent=1;resizeParentMax=0;resizeLast=0;collapsible=1;marginBottom=0;fontSize=11;labelBackgroundColor=#1A1B2E;fontColor=#F0F0F0;labelBorderColor=none;" vertex="1" parent="1">
                    <mxGeometry x="110" y="167" width="227" height="260" as="geometry"/>
                </mxCell>
                <mxCell id="7" value="-size:int" style="text;strokeColor=none;fillColor=none;align=left;verticalAlign=top;spacingLeft=4;spacingRight=4;overflow=hidden;rotatable=0;points=[[0,0.5],[1,0.5]];portConstraint=eastwest;labelBackgroundColor=#1A1B2E;" vertex="1" parent="6">
                    <mxGeometry y="26" width="227" height="26" as="geometry"/>
                </mxCell>
                <mxCell id="8" value="" style="line;strokeWidth=1;fillColor=none;align=left;verticalAlign=middle;spacingTop=-1;spacingLeft=3;spacingRight=3;rotatable=0;labelPosition=right;points=[];portConstraint=eastwest;strokeColor=inherit;" vertex="1" parent="6">
                    <mxGeometry y="52" width="227" height="8" as="geometry"/>
                </mxCell>
                <mxCell id="9" value="+list():&#10;+getsize():&#10;+isEmpty():bool&#10;+insert()+insert(index:int,value:T):void&#10;+remove(index: int): void&#10;+get(index:int):T&#10;+display():void                                    &#10;&#10;&#10; &#10; &#10;" style="text;strokeColor=none;fillColor=none;align=left;verticalAlign=top;spacingLeft=4;spacingRight=4;overflow=hidden;rotatable=0;points=[[0,0.5],[1,0.5]];portConstraint=eastwest;fontSize=12;" vertex="1" parent="6">
                    <mxGeometry y="60" width="227" height="200" as="geometry"/>
                </mxCell>
            </root>
        </mxGraphModel>
    </diagram>
</mxfile>